<svg width="18" height="18" viewBox="0 0 18 18" fill="none" xmlns="http://www.w3.org/2000/svg">
<path d="M14.0076 5.33321C14.0851 5.44767 14.1157 5.58748 14.0932 5.72385L13.1078 11.7517C13.0826 11.891 13.0036 12.0149 12.8879 12.0965C12.7723 12.1782 12.6291 12.2112 12.4894 12.1883C12.3497 12.1655 12.2245 12.0887 12.1408 11.9744C12.0572 11.8602 12.0217 11.7177 12.0421 11.5776L12.8178 6.83244L4.51713 12.7953C4.40082 12.8789 4.25607 12.9128 4.11474 12.8896C3.97341 12.8665 3.84707 12.7881 3.76351 12.6718C3.67995 12.5555 3.64603 12.4107 3.66919 12.2694C3.69235 12.1281 3.77071 12.0017 3.88703 11.9182L12.1836 5.95825L7.44658 5.1803C7.37465 5.17111 7.30531 5.14751 7.24269 5.11094C7.18007 5.07436 7.12547 5.02554 7.08213 4.9674C7.03878 4.90926 7.0076 4.84299 6.99043 4.77253C6.97326 4.70208 6.97045 4.62889 6.98218 4.55732C6.99391 4.48576 7.01993 4.41729 7.0587 4.35601C7.09746 4.29472 7.14817 4.24187 7.2078 4.2006C7.26744 4.15934 7.33477 4.13051 7.40579 4.11584C7.4768 4.10116 7.55005 4.10094 7.62115 4.11519L13.6011 5.09685C13.6823 5.10319 13.7609 5.12777 13.8312 5.16877C13.9015 5.20978 13.9622 5.26571 14.0076 5.33321Z" fill="black"/>
</svg>
