<svg width="20" height="20" viewBox="0 0 20 20" fill="none" xmlns="http://www.w3.org/2000/svg">
<path fill-rule="evenodd" clip-rule="evenodd" d="M4.68699 3.68667C3.30449 4.31833 2.29199 5.82167 2.29199 7.61417C2.29199 9.445 3.04199 10.8567 4.11533 12.0667C5.00116 13.0633 6.07283 13.89 7.11783 14.695C7.36671 14.8867 7.61255 15.0778 7.85533 15.2683C8.29366 15.6142 8.68449 15.9167 9.06199 16.1375C9.43949 16.3583 9.74199 16.4583 10.0003 16.4583C10.2587 16.4583 10.562 16.3583 10.9387 16.1375C11.3162 15.9167 11.707 15.6142 12.1453 15.2683C12.3881 15.0772 12.6339 14.8864 12.8828 14.6958C13.9278 13.8892 14.9995 13.0633 15.8853 12.0667C16.9595 10.8567 17.7087 9.445 17.7087 7.61417C17.7087 5.8225 16.6962 4.31833 15.3137 3.68667C13.9703 3.0725 12.1653 3.235 10.4503 5.0175C10.392 5.07799 10.3221 5.1261 10.2448 5.15896C10.1675 5.19183 10.0843 5.20876 10.0003 5.20876C9.91631 5.20876 9.83316 5.19183 9.75584 5.15896C9.67853 5.1261 9.60863 5.07799 9.55033 5.0175C7.83533 3.235 6.03033 3.0725 4.68699 3.68667ZM10.0003 3.71667C8.07366 1.99167 5.91616 1.75 4.16699 2.54917C2.32199 3.395 1.04199 5.355 1.04199 7.615C1.04199 9.83583 1.96699 11.5308 3.18116 12.8975C4.15283 13.9917 5.34199 14.9075 6.39283 15.7158C6.63171 15.8992 6.86116 16.0775 7.08116 16.2508C7.50866 16.5875 7.96699 16.9458 8.43116 17.2175C8.89533 17.4892 9.42533 17.7092 10.0003 17.7092C10.5753 17.7092 11.1053 17.4883 11.5695 17.2175C12.0345 16.9458 12.492 16.5875 12.9195 16.2508C13.1395 16.0775 13.3689 15.8992 13.6078 15.7158C14.6578 14.9075 15.8478 13.9908 16.8195 12.8975C18.0337 11.5308 18.9587 9.83583 18.9587 7.615C18.9587 5.355 17.6795 3.395 15.8337 2.55083C14.0845 1.75083 11.927 1.9925 10.0003 3.71667Z" fill="black"/>
</svg>
