<svg width="20" height="20" viewBox="0 0 20 20" fill="none" xmlns="http://www.w3.org/2000/svg">
<path d="M6.50008 1.66666H13.5001C16.1667 1.66666 18.3334 3.83332 18.3334 6.49999V13.5C18.3334 14.7819 17.8242 16.0112 16.9178 16.9177C16.0113 17.8241 14.782 18.3333 13.5001 18.3333H6.50008C3.83341 18.3333 1.66675 16.1667 1.66675 13.5V6.49999C1.66675 5.21811 2.17597 3.98873 3.0824 3.08231C3.98882 2.17588 5.2182 1.66666 6.50008 1.66666ZM6.33341 3.33332C5.53777 3.33332 4.7747 3.64939 4.21209 4.212C3.64949 4.77461 3.33341 5.53767 3.33341 6.33332V13.6667C3.33341 15.325 4.67508 16.6667 6.33341 16.6667H13.6667C14.4624 16.6667 15.2255 16.3506 15.7881 15.788C16.3507 15.2254 16.6667 14.4623 16.6667 13.6667V6.33332C16.6667 4.67499 15.3251 3.33332 13.6667 3.33332H6.33341ZM14.3751 4.58332C14.6513 4.58332 14.9163 4.69307 15.1117 4.88842C15.307 5.08377 15.4167 5.34872 15.4167 5.62499C15.4167 5.90126 15.307 6.16621 15.1117 6.36156C14.9163 6.55691 14.6513 6.66666 14.3751 6.66666C14.0988 6.66666 13.8339 6.55691 13.6385 6.36156C13.4432 6.16621 13.3334 5.90126 13.3334 5.62499C13.3334 5.34872 13.4432 5.08377 13.6385 4.88842C13.8339 4.69307 14.0988 4.58332 14.3751 4.58332ZM10.0001 5.83332C11.1051 5.83332 12.165 6.27231 12.9464 7.05371C13.7278 7.83511 14.1667 8.89492 14.1667 9.99999C14.1667 11.1051 13.7278 12.1649 12.9464 12.9463C12.165 13.7277 11.1051 14.1667 10.0001 14.1667C8.89501 14.1667 7.8352 13.7277 7.0538 12.9463C6.2724 12.1649 5.83341 11.1051 5.83341 9.99999C5.83341 8.89492 6.2724 7.83511 7.0538 7.05371C7.8352 6.27231 8.89501 5.83332 10.0001 5.83332ZM10.0001 7.49999C9.33704 7.49999 8.70115 7.76338 8.23231 8.23222C7.76347 8.70106 7.50008 9.33695 7.50008 9.99999C7.50008 10.663 7.76347 11.2989 8.23231 11.7678C8.70115 12.2366 9.33704 12.5 10.0001 12.5C10.6631 12.5 11.299 12.2366 11.7678 11.7678C12.2367 11.2989 12.5001 10.663 12.5001 9.99999C12.5001 9.33695 12.2367 8.70106 11.7678 8.23222C11.299 7.76338 10.6631 7.49999 10.0001 7.49999Z" fill="black"/>
</svg>
