<svg width="20" height="20" viewBox="0 0 20 20" fill="none" xmlns="http://www.w3.org/2000/svg">
<path d="M4.3 6.1125C5.3 6.1125 6.1 5.3 6.1 4.3125C6.1 3.325 5.2875 2.5125 4.3 2.5125C3.3125 2.5125 2.5 3.325 2.5 4.3125C2.5 5.3 3.3125 6.1125 4.3 6.1125ZM7.8125 7.475V17.5H10.9125V12.55C10.9125 11.2375 11.1625 9.975 12.775 9.975C14.3875 9.975 14.3875 11.475 14.3875 12.625V17.5H17.5V12C17.5 9.3 16.925 7.225 13.775 7.225C12.2625 7.225 11.25 8.05 10.8375 8.8375H10.8V7.4625H7.825L7.8125 7.475ZM2.75 7.475H5.8625V17.5H2.75V7.475Z" fill="black"/>
</svg>
